<?xml version="1.0" standalone="no"?>
<!DOCTYPE svg PUBLIC "-//W3C//DTD SVG 20010904//EN"
 "http://www.w3.org/TR/2001/REC-SVG-20010904/DTD/svg10.dtd">
<svg version="1.0" xmlns="http://www.w3.org/2000/svg"
 width="1569.000000pt" height="240.000000pt" viewBox="0 0 1569.000000 240.000000"
 preserveAspectRatio="xMidYMid meet">
<metadata>
Created by potrace 1.16, written by Peter Selinger 2001-2019
</metadata>
<g transform="translate(0.000000,240.000000) scale(0.100000,-0.100000)"
fill="#000000" stroke="none">
<path d="M0 1200 l0 -1200 7845 0 7845 0 0 1200 0 1200 -7845 0 -7845 0 0
-1200z m5550 623 c0 -6 -315 -388 -468 -569 -15 -18 -151 -180 -302 -362
l-275 -331 -643 0 c-629 -1 -642 -1 -662 19 -22 22 -26 70 -8 103 11 22 114
146 335 405 l114 132 390 0 c377 0 390 -1 377 -18 -7 -10 -44 -53 -82 -95
l-70 -77 -163 0 -164 0 -34 -37 c-19 -21 -35 -41 -35 -45 0 -5 100 -8 223 -8
l223 0 94 116 c52 64 165 200 250 303 85 102 208 250 273 329 l117 142 255 0
c140 0 255 -3 255 -7z m1540 -2 c0 -9 -152 -194 -415 -506 -86 -102 -203 -242
-569 -683 l-60 -72 -642 0 c-571 0 -644 2 -658 16 -20 20 -30 57 -22 87 3 13
107 143 232 290 l226 267 396 0 396 0 -35 -37 c-20 -21 -59 -64 -89 -95 l-53
-58 -162 0 -161 0 -25 -27 c-61 -68 -76 -63 173 -63 l225 0 224 272 c123 150
241 293 263 318 43 50 38 45 159 193 l88 107 255 0 c151 0 254 -4 254 -9z
m-3450 -375 c0 -24 -76 -100 -123 -124 -43 -21 -54 -22 -258 -20 l-213 3 62
72 63 73 227 3 c125 1 230 3 235 5 4 1 7 -4 7 -12z m9174 5 c12 -19 -66 -99
-126 -131 -34 -18 -57 -20 -248 -20 -115 0 -210 3 -210 8 0 4 25 36 57 72 l56
65 226 5 c124 3 229 7 233 8 4 1 9 -2 12 -7z m2076 -46 c-18 -26 -52 -56 -84
-74 l-53 -31 -212 0 c-116 0 -211 3 -211 6 0 4 25 37 56 73 l57 66 231 5 c127
3 234 4 239 2 4 -2 -6 -23 -23 -47z m664 46 c11 -18 -67 -100 -128 -133 -26
-15 -62 -17 -243 -18 -117 0 -213 2 -213 6 0 3 25 36 56 74 l56 70 226 3 c125
1 230 3 234 5 4 1 9 -2 12 -7z m-12050 -230 c3 -5 -12 -28 -33 -52 -21 -24
-87 -103 -147 -175 -60 -72 -167 -199 -237 -282 l-129 -152 -265 0 c-251 0
-265 1 -252 18 23 29 403 487 409 492 3 3 34 40 69 83 l62 77 259 0 c142 0
261 -4 264 -9z m8510 1 c4 -6 -339 -425 -495 -604 l-50 -58 -220 0 c-120 0
-219 3 -219 8 0 4 45 61 101 127 196 234 269 324 269 329 0 3 -112 6 -249 6
l-249 0 -31 -39 c-17 -21 -31 -42 -31 -45 0 -3 77 -6 171 -6 148 0 170 -2 165
-15 -3 -8 -71 -94 -152 -190 l-147 -175 -399 0 c-219 0 -398 3 -398 8 0 4 55
75 121 157 67 83 146 182 177 220 78 99 169 191 224 226 89 57 88 57 775 58
347 1 634 -2 637 -7z m666 -2 c0 -6 -61 -83 -136 -173 -76 -89 -198 -235 -273
-324 l-136 -163 -263 0 c-162 0 -262 4 -260 9 3 10 444 542 512 618 l38 43
259 0 c169 0 259 -4 259 -10z m-9951 -24 c15 -14 21 -31 21 -60 0 -46 13 -29
-292 -389 l-159 -187 -304 0 c-168 0 -305 4 -305 8 0 4 41 57 91 117 49 61
133 161 185 224 51 63 94 118 94 123 0 4 -36 8 -79 8 l-79 0 -194 -235 c-106
-129 -202 -237 -213 -240 -11 -3 -116 -4 -234 -3 l-215 3 85 100 c236 279 299
356 299 365 0 6 -34 10 -80 10 l-79 0 -197 -236 c-108 -130 -202 -238 -208
-240 -6 -2 -147 -3 -313 -2 l-302 3 217 262 c120 144 230 271 244 283 33 25
183 96 218 103 14 2 419 4 901 3 847 -1 878 -2 898 -20z m4919 10 c47 -24 65
-53 65 -100 0 -40 -7 -53 -69 -129 -222 -271 -305 -364 -346 -387 l-43 -25
-393 -3 c-343 -3 -400 -1 -443 13 -55 19 -93 60 -102 112 -6 30 4 46 151 225
187 230 239 284 283 297 19 5 216 10 452 10 340 1 423 -2 445 -13z m2702 1
c31 -15 49 -75 32 -109 -6 -13 -85 -111 -177 -218 -92 -107 -190 -223 -218
-257 l-52 -62 -307 0 c-170 -1 -308 2 -308 5 0 3 81 104 181 225 99 121 183
227 186 235 4 11 -9 14 -69 14 l-75 0 -203 -240 -203 -240 -224 0 c-122 0
-223 3 -223 8 0 6 239 295 471 570 l70 82 547 0 c420 0 553 -3 572 -13z m3733
-45 c-26 -32 -73 -88 -103 -124 l-55 -67 -200 0 -201 -1 -89 -107 c-49 -60
-125 -152 -169 -205 l-81 -97 -258 -1 c-142 0 -257 4 -255 8 2 5 73 93 158
196 85 103 157 191 158 196 2 6 -63 10 -172 10 -96 0 -177 3 -179 8 -3 4 40
60 95 125 l100 117 650 0 650 0 -49 -58z m1097 43 c16 -8 36 -25 44 -37 24
-33 20 -100 -6 -134 -56 -73 -286 -344 -332 -392 -79 -81 -83 -82 -527 -82
-348 0 -381 1 -422 19 -51 22 -84 59 -93 107 -7 38 -20 19 212 299 161 194
169 202 221 221 59 21 862 20 903 -1z"/>
<path d="M7064 1054 c-7 -3 -49 -50 -95 -106 -46 -56 -99 -118 -117 -139 -19
-21 -31 -43 -27 -49 3 -5 37 -10 75 -10 l69 0 58 71 c32 40 86 106 120 147 34
41 60 79 57 84 -5 8 -120 10 -140 2z"/>
<path d="M14559 1022 c-75 -83 -204 -245 -207 -258 -3 -11 12 -14 68 -14 83 0
66 -13 219 174 55 68 97 126 94 130 -4 3 -37 6 -74 6 -65 0 -68 -1 -100 -38z"/>
</g>
</svg>
